<?xml version="1.0" encoding="iso-8859-1"?>
<!-- Uploaded to: SVG Repo, www.svgrepo.com, Generator: SVG Repo Mixer Tools -->
<!DOCTYPE svg PUBLIC "-//W3C//DTD SVG 1.1//EN" "http://www.w3.org/Graphics/SVG/1.1/DTD/svg11.dtd">
<svg fill="#000000" height="800px" width="800px" version="1.1" id="Capa_1" xmlns="http://www.w3.org/2000/svg" xmlns:xlink="http://www.w3.org/1999/xlink" 
	 viewBox="0 0 66.762 66.762" xml:space="preserve">
<path d="M62.876,32.439l-23.243-3.206l14.298-17.892c1.552-1.941,1.235-4.773-0.706-6.325c-1.943-1.552-4.774-1.235-6.325,0.707
	L29.727,27.213l-7.767-2.939c-0.953-5.146-5.466-9.058-10.883-9.058C4.969,15.216,0,20.185,0,26.293S4.969,37.37,11.077,37.37
	c3.549,0,6.704-1.684,8.733-4.287l5.109,1.933l-2.713,5.623c-0.386-0.041-0.778-0.064-1.175-0.064
	c-6.108,0-11.077,4.969-11.077,11.077s4.969,11.077,11.077,11.077s11.077-4.969,11.077-11.077c0-2.415-0.786-4.645-2.103-6.468
	l3.707-7.683l27.933,3.853c0.209,0.028,0.416,0.042,0.621,0.042c2.212,0,4.142-1.632,4.452-3.886
	C67.059,35.05,65.338,32.779,62.876,32.439z M11.077,28.37C9.932,28.37,9,27.438,9,26.293s0.932-2.077,2.077-2.077
	c1.145,0,2.077,0.932,2.077,2.077S12.222,28.37,11.077,28.37z M21.031,53.729c-1.145,0-2.077-0.932-2.077-2.077
	c0-1.146,0.932-2.077,2.077-2.077c1.146,0,2.077,0.932,2.077,2.077C23.108,52.798,22.177,53.729,21.031,53.729z"/>
</svg>